<?xml version="1.0" ?><!DOCTYPE svg  PUBLIC '-//W3C//DTD SVG 1.1//EN'  'http://www.w3.org/Graphics/SVG/1.1/DTD/svg11.dtd' [
	<!ENTITY stroke_color "#010101">
	<!ENTITY fill_color "#ffffff">
]>
<svg
   xmlns:dc="http://purl.org/dc/elements/1.1/"
   xmlns:cc="http://creativecommons.org/ns#"
   xmlns:rdf="http://www.w3.org/1999/02/22-rdf-syntax-ns#"
   xmlns:svg="http://www.w3.org/2000/svg"
   xmlns="http://www.w3.org/2000/svg"
   version="1.1"
   width="175"
   height="175"
   viewBox="0 0 175 175"
   xml:space="preserve">
<g
     transform="translate(49.999585,-20.771)"
     id="g3096"><path
       d="m 54.165,54.509 c 0,-9.531 -7.724,-17.258 -17.253,-17.258 -9.534,0 -17.26,7.727 -17.26,17.258"
       id="path3098"
       style="fill:none;stroke:&stroke_color;;stroke-width:3.5;stroke-linecap:round;stroke-linejoin:round;stroke-miterlimit:10" /><path
       d="m 23.386,48.084 c -3.458,0 -6.261,2.802 -6.261,6.261 0,3.459 2.803,6.261 6.261,6.261"
       id="path3100"
       style="fill:&fill_color;;stroke:&stroke_color;;stroke-width:3.5;stroke-linecap:round;stroke-linejoin:round;stroke-miterlimit:10" /><path
       d="m 50.062,48.084 c 3.457,0 6.262,2.802 6.262,6.261 0,3.459 -2.805,6.261 -6.262,6.261"
       id="path3102"
       style="fill:&fill_color;;stroke:&stroke_color;;stroke-width:3.5;stroke-linecap:round;stroke-linejoin:round;stroke-miterlimit:10" /><path
       d="M 71.771,107.626 54.404,73.706 c -0.926,-1.809 -2.721,-2.86 -4.614,-2.955 l -5.59,0.255 -6.747,6.748 -6.744,-6.748 -7.055,-0.246 c -1.949,0.133 -3.767,1.283 -4.628,3.185 L 3.115,109.14 c -1.248,2.758 -0.023,6.008 2.736,7.254 0.732,0.333 1.502,0.491 2.256,0.491 2.088,0 4.083,-1.201 4.998,-3.228 L 23.654,90.331 20.386,118.052 H 53.057 L 49.79,88.76 62.008,112.626 c 0.973,1.895 2.893,2.985 4.886,2.985 0.842,0 1.696,-0.193 2.494,-0.603 2.696,-1.38 3.763,-4.685 2.383,-7.382 z"
       id="path3104"
       style="fill:&fill_color;;stroke:&stroke_color;;stroke-width:3.5;stroke-linecap:round;stroke-linejoin:round;stroke-miterlimit:10" /><path
       d="m 23.654,133.299 v 49.004 c 0,3.006 2.438,5.446 5.444,5.446 3.008,0 5.446,-2.44 5.446,-5.446 V 133.299 H 38.9 v 49.004 c 0,3.006 2.438,5.446 5.445,5.446 3.006,0 5.444,-2.44 5.444,-5.446 V 133.299 118.052 H 23.654 v 15.247 z"
       id="path3106"
       style="fill:&fill_color;;stroke:&stroke_color;;stroke-width:3.5;stroke-linecap:round;stroke-linejoin:round;stroke-miterlimit:10" /><path
       d="m 36.912,67.955 c 7.424,0 13.441,-6.021 13.441,-13.445 0,-7.425 -6.018,-13.446 -13.441,-13.446 -7.428,0 -13.449,6.021 -13.449,13.446 0,7.424 6.021,13.445 13.449,13.445 z"
       id="path3108"
       style="fill:&fill_color;;stroke:&stroke_color;;stroke-width:3.5;stroke-linecap:round;stroke-linejoin:round;stroke-miterlimit:10" /><polygon
       points="13.579,139.8 20.482,118.075 53.15,118.075 60.773,139.8 "
       id="polygon3110"
       style="fill:&fill_color;;stroke:&stroke_color;;stroke-width:3.5;stroke-linecap:round;stroke-linejoin:round;stroke-miterlimit:10" /><path
       d="m 39.347,87.106 3.046,-3.057 c 0.505,-0.505 0.48,-1.349 -0.059,-1.89 -0.539,-0.538 -1.383,-0.564 -1.889,-0.055 l -3.041,3.05 -3.041,-3.05 c -0.506,-0.51 -1.352,-0.483 -1.89,0.055 -0.536,0.541 -0.561,1.385 -0.056,1.89 l 3.043,3.057 -2.987,2.997 c -0.505,0.51 -0.481,1.357 0.055,1.895 0.54,0.542 1.386,0.561 1.89,0.054 l 2.986,-2.995 2.986,2.995 c 0.505,0.506 1.352,0.487 1.887,-0.054 0.539,-0.538 0.564,-1.385 0.058,-1.895 l -2.988,-2.997"
       id="path3112"
       style="fill:&stroke_color;" /></g></svg>
