<?xml version="1.0" ?><!DOCTYPE svg  PUBLIC '-//W3C//DTD SVG 1.1//EN'  'http://www.w3.org/Graphics/SVG/1.1/DTD/svg11.dtd' [
	<!ENTITY stroke_color "#010101">
	<!ENTITY fill_color "#ffffff">
]>
<svg
   xmlns:dc="http://purl.org/dc/elements/1.1/"
   xmlns:cc="http://creativecommons.org/ns#"
   xmlns:rdf="http://www.w3.org/1999/02/22-rdf-syntax-ns#"
   xmlns:svg="http://www.w3.org/2000/svg"
   xmlns="http://www.w3.org/2000/svg"
   version="1.1"
   width="175"
   height="175"
   viewBox="0 0 175 175"
   xml:space="preserve">
<g
     transform="translate(50.000125,-9.455)"
     id="g3322"><g
       id="g3324"><path
         d="m 22.071,125.574 v 3.832 l -1.493,42.717 c 0,2.38 2.391,4.31 5.342,4.31 2.948,0 5.338,-1.93 5.338,-4.31 l 4.477,-38.92 h 3.56 l 4.476,38.92 c 0,2.38 2.391,4.31 5.342,4.31 2.948,0 5.338,-1.93 5.338,-4.31 L 52.96,129.406 v -3.832 l -2.984,-8.62 H 25.055 l -2.984,8.62 z"
         id="path3326"
         style="fill:&fill_color;;stroke:&stroke_color;;stroke-width:3.5;stroke-linecap:round;stroke-linejoin:round;stroke-miterlimit:10" /><polygon
         points="14.783,145.503 23.894,112.238 51.286,112.238 60.398,145.503 "
         id="polygon3328"
         style="fill:&fill_color;;stroke:&stroke_color;;stroke-width:3.5;stroke-linecap:round;stroke-linejoin:round;stroke-miterlimit:10" /><path
         d="M 67.953,104.57 50.201,76.164 c -0.61,-0.583 -1.36,-0.949 -2.146,-1.118 l -8.832,6.467 H 35.81 l -8.833,-6.546 c -1.234,-0.089 -2.496,0.299 -3.438,1.197 L 7.046,104.57 c -1.715,1.638 -1.715,4.294 0,5.935 0.858,0.819 1.985,1.229 3.11,1.229 1.126,0 2.251,-0.41 3.109,-1.229 l 13.711,-24.548 -3.424,26.694 h 27.927 l -3.424,-26.666 13.679,24.52 c 0.858,0.819 1.984,1.229 3.109,1.229 1.125,0 2.252,-0.41 3.11,-1.229 1.715,-1.64 1.717,-4.297 0,-5.935 z"
         id="path3330"
         style="fill:&fill_color;;stroke:&stroke_color;;stroke-width:3.5;stroke-linecap:round;stroke-linejoin:round;stroke-miterlimit:10" /><circle
         cx="37.000999"
         cy="64.228996"
         r="10.573"
         id="circle3332"
         style="fill:&fill_color;;stroke:&stroke_color;;stroke-width:3.5;stroke-linecap:round;stroke-linejoin:round;stroke-miterlimit:10" /><path
         d="m 29.487,118.097 c 0,0 1.907,5.539 -3.266,9.802"
         id="path3334"
         style="fill:&fill_color;;stroke:&stroke_color;;stroke-width:3.5;stroke-linecap:round;stroke-linejoin:round;stroke-miterlimit:10" /><path
         d="m 45.242,118.097 c 0,0 -1.906,5.539 3.266,9.802"
         id="path3336"
         style="fill:&fill_color;;stroke:&stroke_color;;stroke-width:3.5;stroke-linecap:round;stroke-linejoin:round;stroke-miterlimit:10" /><path
         d="m 39.28,90.335 3.046,-3.057 c 0.505,-0.503 0.479,-1.348 -0.062,-1.89 -0.536,-0.538 -1.381,-0.564 -1.886,-0.055 l -3.041,3.05 -3.041,-3.05 c -0.506,-0.51 -1.352,-0.483 -1.892,0.055 -0.534,0.542 -0.559,1.387 -0.055,1.89 l 3.043,3.057 -2.988,2.997 c -0.504,0.51 -0.48,1.357 0.055,1.895 0.54,0.542 1.385,0.561 1.891,0.056 l 2.987,-2.997 2.986,2.997 c 0.504,0.504 1.352,0.485 1.886,-0.056 0.54,-0.538 0.564,-1.385 0.058,-1.895 L 39.28,90.335"
         id="path3338"
         style="fill:&stroke_color;" /></g><path
       d="m 34.941,53.935 h 3.886 l 3.046,-3.057 c 0.504,-0.503 0.478,-1.348 -0.062,-1.89 -0.536,-0.538 -1.381,-0.564 -1.886,-0.055 l -3.041,3.05 -3.041,-3.05 c -0.506,-0.51 -1.352,-0.483 -1.891,0.055 -0.535,0.542 -0.559,1.387 -0.055,1.89 l 3.044,3.057 z"
       id="path3340"
       style="fill:&stroke_color;" /></g></svg>
