<?xml version="1.0" ?><!DOCTYPE svg  PUBLIC '-//W3C//DTD SVG 1.1//EN'  'http://www.w3.org/Graphics/SVG/1.1/DTD/svg11.dtd' [
	<!ENTITY stroke_color "#010101">
	<!ENTITY fill_color "#ffffff">
]>
<svg
   xmlns:dc="http://purl.org/dc/elements/1.1/"
   xmlns:cc="http://creativecommons.org/ns#"
   xmlns:rdf="http://www.w3.org/1999/02/22-rdf-syntax-ns#"
   xmlns:svg="http://www.w3.org/2000/svg"
   xmlns="http://www.w3.org/2000/svg"
   version="1.1"
   width="175"
   height="175"
   viewBox="0 0 175 175"
   xml:space="preserve">
<g
     transform="translate(49.999986,-25.000499)"
     id="g4"><g
       id="g6"><path
         d="M 71.06,110.304 54.539,67.65 C 53.857,65.891 52.351,64.702 50.632,64.34 L 23.955,64.274 c -1.951,0.216 -3.716,1.478 -4.449,3.443 L 3.914,109.636 c -1.035,2.783 0.381,5.876 3.162,6.91 0.617,0.229 1.25,0.339 1.873,0.339 2.182,0 4.23,-1.34 5.035,-3.502 L 23.955,86.58 v 17.895 3.201 10.672 6.402 61.891 c 0,2.948 2.389,5.337 5.336,5.337 2.947,0 5.336,-2.389 5.336,-5.337 V 124.75 h 5.334 v 61.891 c 0,2.948 2.389,5.337 5.336,5.337 2.946,0 5.335,-2.389 5.335,-5.337 v -61.891 -6.402 -10.672 -3.201 -17.16 l 10.408,26.87 c 0.824,2.13 2.858,3.435 5.011,3.435 0.646,0 1.301,-0.118 1.939,-0.365 2.769,-1.073 4.143,-4.184 3.07,-6.951 z"
         id="path8"
         style="fill:&fill_color;;stroke:&stroke_color;;stroke-width:3.5;stroke-linecap:round;stroke-linejoin:round;stroke-miterlimit:10" /><circle
         cx="37.169998"
         cy="46.196999"
         r="13.174"
         id="circle10"
         style="fill:&fill_color;;stroke:&stroke_color;;stroke-width:3.5;stroke-linecap:round;stroke-linejoin:round;stroke-miterlimit:10" /></g><polygon
       points="18.062,135.678 23.785,113.953 50.863,113.953 57.184,135.678 "
       id="polygon12"
       style="fill:&fill_color;;stroke:&stroke_color;;stroke-width:3.5;stroke-linecap:round;stroke-linejoin:round;stroke-miterlimit:10" /><circle
       cx="37.035"
       cy="69.827003"
       r="2.178"
       id="circle14"
       style="fill:&stroke_color;" /><circle
       cx="37.035"
       cy="77.085999"
       r="2.178"
       id="circle16"
       style="fill:&stroke_color;" /><circle
       cx="37.035"
       cy="84.527"
       r="2.178"
       id="circle18"
       style="fill:&stroke_color;" /></g></svg>
