<?xml version="1.0" ?><!DOCTYPE svg  PUBLIC '-//W3C//DTD SVG 1.1//EN'  'http://www.w3.org/Graphics/SVG/1.1/DTD/svg11.dtd' [
	<!ENTITY stroke_color "#010101">
	<!ENTITY fill_color "#ffffff">
]>
<svg
   xmlns:dc="http://purl.org/dc/elements/1.1/"
   xmlns:cc="http://creativecommons.org/ns#"
   xmlns:rdf="http://www.w3.org/1999/02/22-rdf-syntax-ns#"
   xmlns:svg="http://www.w3.org/2000/svg"
   xmlns="http://www.w3.org/2000/svg"
   version="1.1"
   width="175"
   height="175"
   viewBox="0 0 175 175"
   xml:space="preserve">
<g
     transform="translate(49.99975,-13.559)"
     id="g3426"><g
       id="g3428"><path
         d="M 69.789,101.9 50.967,76.388 C 50.319,75.74 49.526,75.331 48.69,75.146 l -9.363,4.764 h -3.619 l -9.365,-4.854 c -1.309,-0.1 -2.646,0.332 -3.648,1.332 L 5.213,101.9 c -1.822,1.82 -1.822,4.771 0,6.594 0.91,0.91 2.104,1.365 3.297,1.365 1.191,0 2.385,-0.455 3.295,-1.365 L 26.342,87.267 22.711,114.509 H 52.32 l -3.631,-27.211 14.506,21.195 c 0.91,0.91 2.104,1.365 3.297,1.365 1.193,0 2.387,-0.455 3.297,-1.365 1.82,-1.822 1.82,-4.773 0,-6.593 z"
         id="path3430"
         style="fill:&fill_color;;stroke:&stroke_color;;stroke-width:3.5;stroke-linecap:round;stroke-linejoin:round;stroke-miterlimit:10" /><path
         d="m 36.945,73.865 c 6.492,0 11.752,-5.258 11.752,-11.746 0,-6.492 -5.26,-11.752 -11.752,-11.752 -6.488,0 -11.746,5.26 -11.746,11.752 0,6.488 5.258,11.746 11.746,11.746 z"
         id="path3432"
         style="fill:&fill_color;;stroke:&stroke_color;;stroke-width:3.5;stroke-linecap:round;stroke-linejoin:round;stroke-miterlimit:10" /><path
         d="m 23.666,124.027 v 4.258 l -1.34,47.463 c 0,2.645 2.146,4.789 4.791,4.789 2.645,0 4.789,-2.145 4.789,-4.789 l 4.014,-43.244 h 3.193 l 4.012,43.244 c 0,2.645 2.146,4.789 4.791,4.789 2.646,0 4.789,-2.145 4.789,-4.789 l -1.338,-47.463 v -4.258 l -2.678,-9.578 H 26.342 l -2.676,9.578 z"
         id="path3434"
         style="fill:&fill_color;;stroke:&stroke_color;;stroke-width:3.5;stroke-linecap:round;stroke-linejoin:round;stroke-miterlimit:10" /><polygon
         points="16.568,145.566 25.125,114.326 50.85,114.326 59.406,145.566 "
         id="polygon3436"
         style="fill:&fill_color;;stroke:&stroke_color;;stroke-width:3.5;stroke-linecap:round;stroke-linejoin:round;stroke-miterlimit:10" /><path
         d="m 30.414,115.718 c 0,0 2.117,6.154 -3.631,10.891"
         id="path3438"
         style="fill:&fill_color;;stroke:&stroke_color;;stroke-width:3.5;stroke-linecap:round;stroke-linejoin:round;stroke-miterlimit:10" /><path
         d="m 44.65,115.718 c 0,0 -2.117,6.154 3.631,10.891"
         id="path3440"
         style="fill:&fill_color;;stroke:&stroke_color;;stroke-width:3.5;stroke-linecap:round;stroke-linejoin:round;stroke-miterlimit:10" /><line
         stroke-miterlimit="10"
         x1="37.473"
         y1="109.81"
         x2="37.473"
         y2="80.364998"
         id="line3442"
         style="fill:&fill_color;;stroke:&stroke_color;;stroke-width:3.5;stroke-linecap:round;stroke-linejoin:round;stroke-miterlimit:10" /></g><path
       d="m 35.012,50.427 h 4.318 l 3.385,-3.396 c 0.561,-0.559 0.531,-1.498 -0.068,-2.1 -0.596,-0.598 -1.535,-0.627 -2.096,-0.061 l -3.379,3.389 -3.379,-3.389 c -0.562,-0.566 -1.502,-0.537 -2.102,0.061 -0.594,0.602 -0.621,1.541 -0.061,2.1 l 3.382,3.396 z"
       id="path3444"
       style="fill:&stroke_color;" /></g></svg>
