<?xml version="1.0" ?><!DOCTYPE svg  PUBLIC '-//W3C//DTD SVG 1.1//EN'  'http://www.w3.org/Graphics/SVG/1.1/DTD/svg11.dtd' [
	<!ENTITY stroke_color "#010101">
	<!ENTITY fill_color "#ffffff">
]>
<svg
   xmlns:dc="http://purl.org/dc/elements/1.1/"
   xmlns:cc="http://creativecommons.org/ns#"
   xmlns:rdf="http://www.w3.org/1999/02/22-rdf-syntax-ns#"
   xmlns:svg="http://www.w3.org/2000/svg"
   xmlns="http://www.w3.org/2000/svg"
   version="1.1"
   width="175"
   height="175"
   viewBox="0 0 175 175"
   xml:space="preserve">
<g
     transform="translate(49.999687,3.671)"
     id="g3618"><g
       id="g3620"><g
         id="g3622"><path
           d="M 66.701,108.105 49.68,92.292 C 49.094,91.706 48.375,91.337 47.621,91.169 L 43.99,94.267 H 31.037 l -3.631,-3.18 c -1.182,-0.088 -2.391,0.301 -3.297,1.205 l -15.81,15.813 c -1.646,1.646 -1.646,4.316 0,5.963 0.822,0.824 1.902,1.236 2.982,1.236 1.078,0 2.156,-0.412 2.98,-1.236 L 27.406,100.92 v 15.486 H 47.621 V 102.16 l 13.117,11.908 c 0.822,0.824 1.902,1.236 2.98,1.236 1.08,0 2.158,-0.412 2.982,-1.236 1.648,-1.647 1.648,-4.317 10e-4,-5.963 z"
           id="path3624"
           style="fill:&fill_color;;stroke:&stroke_color;;stroke-width:3.5;stroke-linecap:round;stroke-linejoin:round;stroke-miterlimit:10" /><circle
           cx="36.998001"
           cy="78.087997"
           r="10.626"
           id="circle3626"
           style="fill:&fill_color;;stroke:&stroke_color;;stroke-width:3.5;stroke-linecap:round;stroke-linejoin:round;stroke-miterlimit:10" /><path
           d="m 27.406,125.289 v 3.85 l -3.629,29.84 c 0,2.391 1.939,4.328 4.332,4.328 2.391,0 4.33,-1.938 4.33,-4.328 l 3.631,-29.84 h 2.889 l 3.629,29.84 c 0,2.391 1.939,4.328 4.332,4.328 2.393,0 4.33,-1.938 4.33,-4.328 l -3.629,-29.84 v -3.85 -8.664 H 27.406 v 8.664 z"
           id="path3628"
           style="fill:&fill_color;;stroke:&stroke_color;;stroke-width:3.5;stroke-linecap:round;stroke-linejoin:round;stroke-miterlimit:10" /></g><polygon
         points="19.182,143.035 26.471,116.416 48.391,116.416 55.684,143.035 "
         id="polygon3630"
         style="fill:&fill_color;;stroke:&stroke_color;;stroke-width:3.5;stroke-linecap:round;stroke-linejoin:round;stroke-miterlimit:10" /><line
         stroke-miterlimit="10"
         x1="31.823999"
         y1="120.47"
         x2="31.823999"
         y2="91.027"
         id="line3632"
         style="fill:&fill_color;;stroke:&stroke_color;;stroke-width:3.5;stroke-linecap:round;stroke-linejoin:round;stroke-miterlimit:10" /><line
         stroke-miterlimit="10"
         x1="43.039001"
         y1="120.47"
         x2="43.039001"
         y2="91.027"
         id="line3634"
         style="fill:&fill_color;;stroke:&stroke_color;;stroke-width:3.5;stroke-linecap:round;stroke-linejoin:round;stroke-miterlimit:10" /></g><path
       d="m 34.961,67.658 h 4.318 l 3.385,-3.396 c 0.561,-0.559 0.531,-1.498 -0.068,-2.1 C 42,61.564 41.061,61.535 40.5,62.101 l -3.379,3.389 -3.379,-3.389 c -0.562,-0.566 -1.502,-0.537 -2.102,0.061 -0.594,0.602 -0.621,1.541 -0.061,2.1 l 3.382,3.396 z"
       id="path3636"
       style="fill:&stroke_color;" /></g></svg>
