<?xml version="1.0" ?><!DOCTYPE svg  PUBLIC '-//W3C//DTD SVG 1.1//EN'  'http://www.w3.org/Graphics/SVG/1.1/DTD/svg11.dtd' [
	<!ENTITY stroke_color "#010101">
	<!ENTITY fill_color "#ffffff">
]>
<svg
   xmlns:dc="http://purl.org/dc/elements/1.1/"
   xmlns:cc="http://creativecommons.org/ns#"
   xmlns:rdf="http://www.w3.org/1999/02/22-rdf-syntax-ns#"
   xmlns:svg="http://www.w3.org/2000/svg"
   xmlns="http://www.w3.org/2000/svg"
   version="1.1"
   width="175"
   height="175"
   viewBox="0 0 175 175"
   xml:space="preserve">
<g
     transform="translate(49.9998,-20.773)"
     id="g3825"><path
       d="m 54.165,54.511 c 0,-9.53 -7.724,-17.26 -17.253,-17.26 -9.534,0 -17.26,7.729 -17.26,17.26"
       id="path3827"
       style="fill:none;stroke:&stroke_color;;stroke-width:3.5;stroke-linecap:round;stroke-linejoin:round;stroke-miterlimit:10" /><path
       d="m 23.386,48.084 c -3.458,0 -6.261,2.805 -6.261,6.264 0,3.457 2.803,6.262 6.261,6.262"
       id="path3829"
       style="fill:&fill_color;;stroke:&stroke_color;;stroke-width:3.5;stroke-linecap:round;stroke-linejoin:round;stroke-miterlimit:10" /><path
       d="m 50.062,48.084 c 3.457,0 6.262,2.805 6.262,6.264 0,3.457 -2.805,6.262 -6.262,6.262"
       id="path3831"
       style="fill:&fill_color;;stroke:&stroke_color;;stroke-width:3.5;stroke-linecap:round;stroke-linejoin:round;stroke-miterlimit:10" /><path
       d="M 71.771,107.629 54.404,73.706 C 53.478,71.898 51.683,70.85 49.79,70.753 l -5.59,0.255 -6.747,6.748 -6.744,-6.748 -7.055,-0.248 c -1.949,0.134 -3.767,1.283 -4.628,3.188 L 3.115,109.141 c -1.249,2.762 -0.023,6.008 2.736,7.256 0.732,0.332 1.502,0.488 2.256,0.488 2.088,0 4.083,-1.199 4.998,-3.225 L 23.654,90.334 20.386,118.053 H 53.057 L 49.79,88.762 62.008,112.626 c 0.973,1.896 2.893,2.986 4.886,2.986 0.842,0 1.696,-0.194 2.494,-0.604 2.696,-1.38 3.763,-4.685 2.383,-7.379 z"
       id="path3833"
       style="fill:&fill_color;;stroke:&stroke_color;;stroke-width:3.5;stroke-linecap:round;stroke-linejoin:round;stroke-miterlimit:10" /><path
       d="m 23.654,133.299 v 49.005 c 0,3.008 2.438,5.446 5.444,5.446 3.008,0 5.446,-2.438 5.446,-5.446 V 133.299 H 38.9 v 49.005 c 0,3.008 2.438,5.446 5.445,5.446 3.006,0 5.444,-2.438 5.444,-5.446 V 133.299 118.053 H 23.654 v 15.246 z"
       id="path3835"
       style="fill:&fill_color;;stroke:&stroke_color;;stroke-width:3.5;stroke-linecap:round;stroke-linejoin:round;stroke-miterlimit:10" /><path
       d="m 36.912,67.955 c 7.424,0 13.441,-6.02 13.441,-13.444 0,-7.427 -6.018,-13.447 -13.441,-13.447 -7.428,0 -13.449,6.021 -13.449,13.447 0,7.425 6.021,13.444 13.449,13.444 z"
       id="path3837"
       style="fill:&fill_color;;stroke:&stroke_color;;stroke-width:3.5;stroke-linecap:round;stroke-linejoin:round;stroke-miterlimit:10" /><path
       d="m 39.347,86.213 3.046,-3.057 c 0.505,-0.503 0.48,-1.348 -0.059,-1.89 -0.539,-0.538 -1.383,-0.564 -1.889,-0.055 l -3.041,3.052 -3.041,-3.052 c -0.506,-0.51 -1.352,-0.483 -1.89,0.055 -0.536,0.542 -0.561,1.387 -0.056,1.89 l 3.043,3.057 -2.987,2.997 c -0.505,0.51 -0.481,1.356 0.055,1.896 0.54,0.541 1.386,0.561 1.89,0.056 l 2.986,-2.997 2.986,2.997 c 0.505,0.505 1.352,0.485 1.887,-0.056 0.539,-0.539 0.564,-1.386 0.058,-1.896 l -2.988,-2.997"
       id="path3839"
       style="fill:&stroke_color;" /></g></svg>
