<?xml version="1.0" ?><!DOCTYPE svg  PUBLIC '-//W3C//DTD SVG 1.1//EN'  'http://www.w3.org/Graphics/SVG/1.1/DTD/svg11.dtd' [
	<!ENTITY stroke_color "#010101">
	<!ENTITY fill_color "#ffffff">
]>
<svg
   xmlns:dc="http://purl.org/dc/elements/1.1/"
   xmlns:cc="http://creativecommons.org/ns#"
   xmlns:rdf="http://www.w3.org/1999/02/22-rdf-syntax-ns#"
   xmlns:svg="http://www.w3.org/2000/svg"
   xmlns="http://www.w3.org/2000/svg"
   version="1.1"
   width="175"
   height="175"
   viewBox="0 0 175 175"
   xml:space="preserve">
<g
     transform="translate(49.99975,-10.608)"
     id="g4100"><path
       d="M 69.789,98.946 50.967,73.435 C 50.319,72.787 49.526,72.38 48.69,72.193 l -9.363,4.764 h -3.619 l -9.365,-4.854 c -1.309,-0.098 -2.646,0.332 -3.648,1.332 L 5.213,98.946 c -1.822,1.822 -1.822,4.773 0,6.594 0.91,0.91 2.104,1.365 3.297,1.365 1.191,0 2.385,-0.455 3.295,-1.365 L 26.342,84.313 22.711,111.555 H 52.32 l -3.631,-27.211 14.506,21.195 c 0.91,0.91 2.104,1.365 3.297,1.365 1.193,0 2.387,-0.455 3.297,-1.365 1.82,-1.819 1.82,-4.77 0,-6.593 z"
       id="path4102"
       style="fill:&fill_color;;stroke:&stroke_color;;stroke-width:3.5;stroke-linecap:round;stroke-linejoin:round;stroke-miterlimit:10" /><circle
       cx="36.945"
       cy="59.164001"
       r="11.749"
       id="circle4104"
       style="fill:&fill_color;;stroke:&stroke_color;;stroke-width:3.5;stroke-linecap:round;stroke-linejoin:round;stroke-miterlimit:10" /><path
       d="m 23.666,121.075 v 4.258 l -1.34,47.463 c 0,2.645 2.146,4.789 4.791,4.789 2.645,0 4.789,-2.145 4.789,-4.789 L 35.92,129.55 h 3.193 l 4.012,43.246 c 0,2.645 2.146,4.789 4.791,4.789 2.646,0 4.789,-2.145 4.789,-4.789 l -1.338,-47.463 v -4.258 l -2.678,-9.578 H 26.342 l -2.676,9.578 z"
       id="path4106"
       style="fill:&fill_color;;stroke:&stroke_color;;stroke-width:3.5;stroke-linecap:round;stroke-linejoin:round;stroke-miterlimit:10" /><path
       d="m 31.02,112.765 c 0,0 2.117,6.156 -3.631,10.891"
       id="path4108"
       style="fill:&fill_color;;stroke:&stroke_color;;stroke-width:3.5;stroke-linecap:round;stroke-linejoin:round;stroke-miterlimit:10" /><path
       d="m 43.682,112.765 c 0,0 -2.117,6.156 3.631,10.891"
       id="path4110"
       style="fill:&fill_color;;stroke:&stroke_color;;stroke-width:3.5;stroke-linecap:round;stroke-linejoin:round;stroke-miterlimit:10" /><line
       stroke-miterlimit="10"
       x1="37.473"
       y1="107.159"
       x2="37.473"
       y2="77.716003"
       id="line4112"
       style="fill:&fill_color;;stroke:&stroke_color;;stroke-width:3.5;stroke-linecap:round;stroke-linejoin:round;stroke-miterlimit:10" /></g></svg>
