<?xml version="1.0" ?><!DOCTYPE svg  PUBLIC '-//W3C//DTD SVG 1.1//EN'  'http://www.w3.org/Graphics/SVG/1.1/DTD/svg11.dtd' [
	<!ENTITY stroke_color "#010101">
	<!ENTITY fill_color "#ffffff">
]>
<svg
   xmlns:dc="http://purl.org/dc/elements/1.1/"
   xmlns:cc="http://creativecommons.org/ns#"
   xmlns:rdf="http://www.w3.org/1999/02/22-rdf-syntax-ns#"
   xmlns:svg="http://www.w3.org/2000/svg"
   xmlns="http://www.w3.org/2000/svg"
   version="1.1"
   width="175"
   height="175"
   viewBox="0 0 175 175"
   xml:space="preserve">
<g
     transform="translate(49.999687,-15.53)"
     id="g3913"><path
       d="M 71.473,102.959 51.669,71.27 c -0.68,-0.65 -1.517,-1.059 -2.394,-1.247 l -9.854,7.212 h -3.807 l -9.853,-7.301 c -1.376,-0.1 -2.785,0.334 -3.835,1.336 L 3.528,102.959 c -1.914,1.828 -1.914,4.791 0,6.618 0.958,0.915 2.215,1.371 3.47,1.371 1.255,0 2.512,-0.456 3.468,-1.371 l 15.295,-27.386 -3.82,34.137 h 31.154 l -3.82,-34.104 15.258,27.354 c 0.958,0.915 2.215,1.371 3.47,1.371 1.255,0 2.512,-0.456 3.47,-1.371 1.913,-1.828 1.914,-4.791 0,-6.619 z"
       id="path3915"
       style="fill:&fill_color;;stroke:&stroke_color;;stroke-width:3.5;stroke-linecap:round;stroke-linejoin:round;stroke-miterlimit:10" /><circle
       cx="37.001999"
       cy="57.778999"
       r="11.659"
       id="circle3917"
       style="fill:&fill_color;;stroke:&stroke_color;;stroke-width:3.5;stroke-linecap:round;stroke-linejoin:round;stroke-miterlimit:10" /><path
       d="m 20.375,126.062 v 4.253 l -1.659,47.409 c 0,2.642 2.656,4.783 5.931,4.783 3.271,0 5.926,-2.142 5.926,-4.783 l 4.968,-43.198 h 3.951 l 4.968,43.198 c 0,2.642 2.652,4.783 5.927,4.783 3.273,0 5.926,-2.142 5.926,-4.783 l -1.654,-47.409 v -4.253 l -3.313,-9.567 H 23.685 l -3.31,9.567 z"
       id="path3919"
       style="fill:&fill_color;;stroke:&stroke_color;;stroke-width:3.5;stroke-linecap:round;stroke-linejoin:round;stroke-miterlimit:10" /><path
       d="m 28.004,117.762 c 0,0 2.115,6.148 -3.626,10.877"
       id="path3921"
       style="fill:&fill_color;;stroke:&stroke_color;;stroke-width:3.5;stroke-linecap:round;stroke-linejoin:round;stroke-miterlimit:10" /><path
       d="m 46.09,117.762 c 0,0 -2.115,6.148 3.626,10.877"
       id="path3923"
       style="fill:&fill_color;;stroke:&stroke_color;;stroke-width:3.5;stroke-linecap:round;stroke-linejoin:round;stroke-miterlimit:10" /><polygon
       points="47.458,53.021 47.458,42.494 25.949,42.494 25.949,53.021 36.821,51.389 "
       id="polygon3925"
       style="fill:&fill_color;;stroke:&stroke_color;;stroke-width:3.5;stroke-linecap:round;stroke-linejoin:round;stroke-miterlimit:10" /><path
       d="m 21.303,55.305 c 8.12,-7.25 24.346,-7.181 30.894,0.154"
       id="path3927"
       style="fill:&fill_color;;stroke:&stroke_color;;stroke-width:3.5;stroke-linecap:round;stroke-linejoin:round;stroke-miterlimit:10" /><line
       stroke-miterlimit="10"
       x1="37.912998"
       y1="116.076"
       x2="37.912998"
       y2="89.575996"
       id="line3929"
       style="fill:&fill_color;;stroke:&stroke_color;;stroke-width:3.5;stroke-linecap:round;stroke-linejoin:round;stroke-miterlimit:10" /></g></svg>
