<?xml version="1.0" ?><!DOCTYPE svg  PUBLIC '-//W3C//DTD SVG 1.1//EN'  'http://www.w3.org/Graphics/SVG/1.1/DTD/svg11.dtd' [
	<!ENTITY stroke_color "#010101">
	<!ENTITY fill_color "#ffffff">
]>
<svg enable-background="new 0 0 55 55" height="55px" id="Layer_1" version="1.1" viewBox="0 0 55 55" width="55px" x="0px" xml:space="preserve" xmlns="http://www.w3.org/2000/svg" xmlns:xlink="http://www.w3.org/1999/xlink" y="0px">
<path
     d="m 45.753619,44.716729 c 0,0 1.522,0.146 2.417,-1.289 0.895,-1.435 -0.068,-2.755 -0.068,-2.755 l -18.182,-28.857 c 0,0 -0.584,-1.414 -2.271,-1.53 -1.688,-0.117 -2.401,1.353 -2.401,1.353 l -18.3519998,29.034 c 0,0 -0.962,1.32 -0.067,2.755 0.895,1.435 2.417,1.289 2.417,1.289 H 45.753619 z"
     style="fill:&fill_color;;stroke:&stroke_color;;stroke-width:3.5;" />
<circle
     cx="27.375"
     cy="27.5"
     r="4"
     transform="translate(0.125,-3.5)"
     id="circle3174"
     style="fill:&stroke_color;" />
<circle
     cx="27.375"
     cy="27.5"
     r="4"
     transform="translate(-7.375,8.5)"
     id="circle3174-5"
     style="fill:&stroke_color;" />
<circle
     cx="27.375"
     cy="27.5"
     r="4"
     transform="translate(7.125,8.5)"
     id="circle3174-5-0"
     style="fill:&stroke_color;" />
<path
     d="m 36.5,13.125 c -3.465,-4.9349991 -4.476,-8.0000001 -9,-8.0000001 -4.524,0 -5.956,3.487001 -9,8.0000001"
     style="fill:none;stroke:&stroke_color;;stroke-width:2.75;stroke-linecap:round" />
<path
     d="m 4.7566874,34.451756 c -2.5413341,5.468278 -4.69020293,7.87633 -2.428203,11.794229 2.2620003,3.917899 5.9978314,3.414547 11.4282036,3.794229"
     style="fill:none;stroke:&stroke_color;;stroke-width:2.75;stroke-linecap:round" />
<path
     d="m 50.243313,34.451756 c 2.541334,5.468278 4.690203,7.87633 2.428203,11.794229 -2.262001,3.917899 -5.997832,3.414547 -11.428204,3.794229"
     style="fill:none;stroke:&stroke_color;;stroke-width:2.75;stroke-linecap:round" />
</svg>
